<svg xmlns="http://www.w3.org/2000/svg" width="24" height="48" viewBox="0 0 24 48"><title>BFxOS</title><g fill="#bbb"><path d="M12.157 14.488c0 .694-.137 1.266-.408 1.717-.272.451-.636.812-1.092 1.084-.457.272-.983.459-1.579.564-.596.104-1.222.156-1.881.156h-4.197v-12.018h4.024c.624 0 1.217.049 1.777.147.561.098 1.052.266 1.474.502.422.237.757.553 1.006.946.249.393.373.884.373 1.474 0 .358-.063.682-.19.971-.128.289-.289.541-.486.754-.196.214-.419.387-.668.52-.248.133-.494.229-.737.286v.069c.289.058.586.15.893.277.306.128.587.301.841.521.255.219.459.494.616.823s.234.733.234 1.207zm-3.434-5.132c0-.474-.147-.815-.442-1.023-.295-.209-.754-.313-1.379-.313h-1.023v2.775h1.11c.612 0 1.055-.112 1.327-.338.271-.226.407-.593.407-1.101zm.451 5.011c0-.624-.179-1.061-.537-1.309-.358-.249-.838-.373-1.439-.373h-1.319v3.243h1.197c.277 0 .543-.02.797-.061.254-.04.477-.119.668-.234.191-.115.344-.274.46-.477.115-.202.173-.465.173-.789zM16.683 8.038v3.156h3.503v2.063h-3.503v4.752h-2.879v-12.018h7.196l-.295 2.046h-4.022z"/></g><g fill="#78B2F2"><path d="M12.157 38.488c0 .694-.137 1.266-.408 1.717-.272.451-.636.812-1.092 1.084-.457.272-.983.459-1.579.564-.596.104-1.222.156-1.881.156h-4.197v-12.018h4.024c.624 0 1.217.049 1.777.147.561.098 1.052.266 1.474.502.422.237.757.553 1.006.946.249.393.373.884.373 1.474 0 .358-.063.682-.19.971-.128.289-.289.541-.486.754-.196.214-.419.387-.668.52-.248.133-.494.229-.737.286v.069c.289.058.586.15.893.277.306.128.587.301.841.521.255.219.459.494.616.823.156.332.234.733.234 1.207zm-3.434-5.132c0-.474-.147-.815-.442-1.023-.295-.208-.754-.313-1.379-.313h-1.023v2.775h1.11c.612 0 1.055-.112 1.327-.338.271-.226.407-.593.407-1.101zm.451 5.011c0-.624-.179-1.061-.537-1.309-.358-.249-.838-.373-1.439-.373h-1.319v3.243h1.197c.277 0 .543-.02.797-.061.254-.04.477-.119.668-.234.191-.115.344-.274.46-.477.115-.202.173-.465.173-.789zM16.683 32.038v3.156h3.503v2.063h-3.503v4.752h-2.879v-12.018h7.196l-.295 2.046h-4.022z"/></g></svg>